<svg id="Layer_1" data-name="Layer 1" xmlns="http://www.w3.org/2000/svg" viewBox="0 0 354.61 176.46">
  <defs>
    <style>
      .cls-1 {
        fill: #231f20;
      }

      .cls-2 {
        fill: #00659b;
      }
    </style>
  </defs>
  <title>IMM_logo</title>
  <path class="cls-1" d="M65.24,14.76H116.5L136.27,74.3l19.62-59.54h51.23v97.85H175.2V38l-24.6,74.62H121.71L97.16,38v74.62H65.24Z" transform="translate(-14.61 -14.76)"/>
  <path class="cls-1" d="M225.73,14.76H277L296.76,74.3l19.62-59.54h51.23v97.85H335.69V38l-24.6,74.62H282.2L257.65,38v74.62H225.73Z" transform="translate(-14.61 -14.76)"/>
  <path class="cls-2" d="M14.61,14.76h34.7V161.68H14.61Z" transform="translate(-14.61 -14.76)"/>
  <path class="cls-2" d="M65.24,127.92h10.5l13.71,18.67V127.92h10.61v33.76H89.45L75.81,143.14v18.54H65.24Z" transform="translate(-14.61 -14.76)"/>
  <path class="cls-2" d="M105.07,127.92h10.5l13.71,18.67V127.92h10.6v33.76h-10.6l-13.64-18.54v18.54H105.07Z" transform="translate(-14.61 -14.76)"/>
  <path class="cls-2" d="M143.4,144.25q0-8.28,5-12.88t13.84-4.61q9.09,0,14,4.53T181.12,144a19.58,19.58,0,0,1-2.14,9.71,14.85,14.85,0,0,1-6.21,5.89,21.76,21.76,0,0,1-10.12,2.11,24.93,24.93,0,0,1-10.2-1.82,14.87,14.87,0,0,1-6.54-5.76A18,18,0,0,1,143.4,144.25Zm11.25,0q0,5.11,2,7.35a8.2,8.2,0,0,0,11.19.05q2-2.19,2-7.86,0-4.77-2.07-7a7.37,7.37,0,0,0-5.62-2.19,7.08,7.08,0,0,0-5.47,2.23C155.33,138.39,154.65,140.85,154.65,144.29Z" transform="translate(-14.61 -14.76)"/>
  <path class="cls-2" d="M178.88,127.92h11.76l8.19,24.29,8.09-24.29h11.42l-13.52,33.76H192.63Z" transform="translate(-14.61 -14.76)"/>
  <path class="cls-2" d="M239,156.11H226.18l-1.78,5.57H212.92l13.68-33.76h12.27l13.69,33.76H240.78Zm-2.33-7.31-4-12.13-4,12.13Z" transform="translate(-14.61 -14.76)"/>
  <path class="cls-2" d="M247.53,127.92h34.2v8.33H270.25v25.43H259V136.25H247.53Z" transform="translate(-14.61 -14.76)"/>
  <path class="cls-2" d="M284.72,127.92H296v33.76H284.72Z" transform="translate(-14.61 -14.76)"/>
  <path class="cls-2" d="M298,127.92h11.76l8.2,24.29L326,127.92h11.41L323.9,161.68H311.7Z" transform="translate(-14.61 -14.76)"/>
  <path class="cls-2" d="M338.52,127.92h30.15v7.2H349.8v5.37h17.5v6.88H349.8V154h19.42v7.65h-30.7Z" transform="translate(-14.61 -14.76)"/>
  <path class="cls-1" d="M14.61,171.56h6.63l2.56,11.76,2.54-11.76H33v19.32H28.83V176.14l-3.18,14.74H21.91l-3.17-14.74v14.74H14.61Z" transform="translate(-14.61 -14.76)"/>
  <path class="cls-1" d="M45.07,187.69H39.35l-.8,3.19H33.41l6.13-19.32H45l6.13,19.32H45.89Zm-1-4.17-1.81-7-1.78,7Z" transform="translate(-14.61 -14.76)"/>
  <path class="cls-1" d="M62.09,183l4.42,1.59a10.5,10.5,0,0,1-1.41,3.67,6.38,6.38,0,0,1-2.37,2.23,7.72,7.72,0,0,1-3.61.76,9.06,9.06,0,0,1-4.35-.92,7.53,7.53,0,0,1-2.91-3.22,12.52,12.52,0,0,1-1.23-5.91q0-4.78,2.16-7.37a7.48,7.48,0,0,1,6.09-2.57,7.3,7.3,0,0,1,4.85,1.48,8.76,8.76,0,0,1,2.62,4.53l-4.45,1.17a5.05,5.05,0,0,0-.49-1.29,3.07,3.07,0,0,0-1-1.05,2.56,2.56,0,0,0-1.36-.38,2.87,2.87,0,0,0-2.63,1.64,8,8,0,0,0-.69,3.81c0,2.14.27,3.61.82,4.4a2.66,2.66,0,0,0,2.32,1.19,2.58,2.58,0,0,0,2.18-1A6.47,6.47,0,0,0,62.09,183Z" transform="translate(-14.61 -14.76)"/>
  <path class="cls-1" d="M67.84,171.56h5v6.76h5.51v-6.76h5.06v19.32H78.39v-7.82H72.88v7.82h-5Z" transform="translate(-14.61 -14.76)"/>
  <path class="cls-1" d="M85.86,171.56h5.06v19.32H85.86Z" transform="translate(-14.61 -14.76)"/>
  <path class="cls-1" d="M93.43,171.56h4.71l6.14,10.69V171.56H109v19.32h-4.75l-6.11-10.61v10.61H93.43Z" transform="translate(-14.61 -14.76)"/>
  <path class="cls-1" d="M111.24,171.56h13.51v4.12h-8.46v3.08h7.85v3.94h-7.85v3.81H125v4.37H111.24Z" transform="translate(-14.61 -14.76)"/>
  <path class="cls-1" d="M145.91,181.48l3.54.94a17,17,0,0,1-.53,1.86c-.17.47-.42,1-.73,1.65l1.71,1.39c.2.15.47.34.8.56l-2.44,3.32c-.45-.28-.91-.61-1.39-1s-.91-.69-1.28-.95a8.74,8.74,0,0,1-2.36,1.34,11,11,0,0,1-3.72.58,6.57,6.57,0,0,1-4.85-1.61,5.33,5.33,0,0,1-1.59-3.9,5.74,5.74,0,0,1,.93-3.12,7.1,7.1,0,0,1,3.06-2.48,10.15,10.15,0,0,1-1.22-2.22,5.54,5.54,0,0,1-.33-1.92,4.6,4.6,0,0,1,1.32-3.39,5.43,5.43,0,0,1,4-1.33,5.6,5.6,0,0,1,4,1.26,4.12,4.12,0,0,1,1.29,3,4.58,4.58,0,0,1-.4,1.89,4.78,4.78,0,0,1-.95,1.48,21.87,21.87,0,0,1-2,1.69,31,31,0,0,0,2.48,2.62A13,13,0,0,0,145.91,181.48Zm-6.82,1.31a5.28,5.28,0,0,0-1.24,1.33,2.33,2.33,0,0,0-.31,1.17,2.45,2.45,0,0,0,.7,1.72,2.4,2.4,0,0,0,1.83.75,4.75,4.75,0,0,0,2.73-1.12A51.91,51.91,0,0,1,139.09,182.79Zm1.61-4.69a5.14,5.14,0,0,0,1.36-1.23,2.22,2.22,0,0,0,.48-1.26,1.49,1.49,0,0,0-.4-1.05,1.44,1.44,0,0,0-1.11-.43,1.48,1.48,0,0,0-1.12.47,1.6,1.6,0,0,0-.43,1.12A4.57,4.57,0,0,0,140.7,178.1Z" transform="translate(-14.61 -14.76)"/>
  <path class="cls-1" d="M158.57,171.56h6.63l2.56,11.76,2.54-11.76h6.63v19.32h-4.14V176.14l-3.17,14.74h-3.74l-3.18-14.74v14.74h-4.13Z" transform="translate(-14.61 -14.76)"/>
  <path class="cls-1" d="M189,187.69h-5.72l-.79,3.19h-5.15l6.13-19.32H189l6.13,19.32h-5.28Zm-1-4.17-1.8-7-1.79,7Z" transform="translate(-14.61 -14.76)"/>
  <path class="cls-1" d="M195.62,171.56h4.71l6.15,10.69V171.56h4.75v19.32h-4.75l-6.11-10.61v10.61h-4.75Z" transform="translate(-14.61 -14.76)"/>
  <path class="cls-1" d="M224.06,171.56h5v11.51a11.43,11.43,0,0,1-.46,3.24,7.17,7.17,0,0,1-1.41,2.66,5.72,5.72,0,0,1-2,1.6,8.76,8.76,0,0,1-3.53.65,19.17,19.17,0,0,1-2.6-.2,6,6,0,0,1-2.35-.79,6,6,0,0,1-1.73-1.67,6.26,6.26,0,0,1-1.08-2.22,13.6,13.6,0,0,1-.47-3.27V171.56h5v11.79a3.69,3.69,0,0,0,.74,2.46,2.49,2.49,0,0,0,2.05.89,2.53,2.53,0,0,0,2-.87,3.75,3.75,0,0,0,.74-2.48Z" transform="translate(-14.61 -14.76)"/>
  <path class="cls-1" d="M231.32,171.56h12.46v4.15h-7.4v3.38h6.32V183h-6.32v7.89h-5.06Z" transform="translate(-14.61 -14.76)"/>
  <path class="cls-1" d="M253.24,187.69h-5.72l-.8,3.19h-5.14l6.13-19.32h5.5l6.13,19.32h-5.28Zm-1-4.17-1.81-7-1.78,7Z" transform="translate(-14.61 -14.76)"/>
  <path class="cls-1" d="M270.25,183l4.42,1.59a10.31,10.31,0,0,1-1.4,3.67,6.33,6.33,0,0,1-2.38,2.23,7.67,7.67,0,0,1-3.61.76,9.11,9.11,0,0,1-4.35-.92,7.59,7.59,0,0,1-2.91-3.22,12.65,12.65,0,0,1-1.22-5.91q0-4.78,2.15-7.37a7.5,7.5,0,0,1,6.1-2.57,7.3,7.3,0,0,1,4.85,1.48,8.89,8.89,0,0,1,2.62,4.53l-4.45,1.17a4.66,4.66,0,0,0-.5-1.29,3,3,0,0,0-1-1.05,2.57,2.57,0,0,0-1.37-.38,2.89,2.89,0,0,0-2.63,1.64,8,8,0,0,0-.69,3.81c0,2.14.28,3.61.83,4.4a2.66,2.66,0,0,0,2.31,1.19,2.59,2.59,0,0,0,2.19-1A6.35,6.35,0,0,0,270.25,183Z" transform="translate(-14.61 -14.76)"/>
  <path class="cls-1" d="M274.84,171.56h15.32v4.77H285v14.55h-5V176.33h-5.14Z" transform="translate(-14.61 -14.76)"/>
  <path class="cls-1" d="M301.93,171.56h5v11.51a11.43,11.43,0,0,1-.44,3.24,7.49,7.49,0,0,1-1.42,2.66,5.64,5.64,0,0,1-2,1.6,8.68,8.68,0,0,1-3.52.65,18.94,18.94,0,0,1-2.6-.2,5.55,5.55,0,0,1-4.09-2.46,6.4,6.4,0,0,1-1.07-2.22,13.12,13.12,0,0,1-.47-3.27V171.56h5v11.79a3.74,3.74,0,0,0,.74,2.46,2.5,2.5,0,0,0,2.05.89,2.55,2.55,0,0,0,2.05-.87,3.75,3.75,0,0,0,.74-2.48Z" transform="translate(-14.61 -14.76)"/>
  <path class="cls-1" d="M309.22,190.88V171.56h8.4a10.62,10.62,0,0,1,3.58.47,4,4,0,0,1,2,1.76,6,6,0,0,1,.76,3.14,6.15,6.15,0,0,1-.58,2.77,5.07,5.07,0,0,1-1.59,1.89,5.65,5.65,0,0,1-1.77.77,4.53,4.53,0,0,1,1.31.71,6.77,6.77,0,0,1,.81,1,8.58,8.58,0,0,1,.7,1.2l2.44,5.6h-5.69l-2.7-5.9a4.79,4.79,0,0,0-.91-1.5,2,2,0,0,0-1.24-.44h-.45v7.84Zm5.06-11.49h2.13a6.4,6.4,0,0,0,1.34-.27,1.31,1.31,0,0,0,.82-.6,2,2,0,0,0,.31-1.12,1.93,1.93,0,0,0-.5-1.44,2.66,2.66,0,0,0-1.88-.5h-2.22Z" transform="translate(-14.61 -14.76)"/>
  <path class="cls-1" d="M326,171.56H331v19.32H326Z" transform="translate(-14.61 -14.76)"/>
  <path class="cls-1" d="M333.51,171.56h4.71l6.14,10.69V171.56h4.76v19.32h-4.76l-6.11-10.61v10.61h-4.74Z" transform="translate(-14.61 -14.76)"/>
  <path class="cls-1" d="M359.53,183.89v-4h7.8v8.24a15.16,15.16,0,0,1-4,2.46,11.41,11.41,0,0,1-4.08.66,8.61,8.61,0,0,1-4.74-1.18,7.67,7.67,0,0,1-2.84-3.49,13.33,13.33,0,0,1-1-5.33,12.85,12.85,0,0,1,1.1-5.5,7.83,7.83,0,0,1,3.23-3.56,9.1,9.1,0,0,1,4.46-.93,10.67,10.67,0,0,1,4.05.58,5.18,5.18,0,0,1,2.22,1.8,8.8,8.8,0,0,1,1.34,3.09l-4.87,1a3.13,3.13,0,0,0-1-1.68,2.86,2.86,0,0,0-1.83-.58,3.08,3.08,0,0,0-2.64,1.37,7.43,7.43,0,0,0-1,4.31,7.7,7.7,0,0,0,1,4.49,3.26,3.26,0,0,0,2.77,1.34,4.61,4.61,0,0,0,1.62-.29,7.93,7.93,0,0,0,1.76-1v-1.81Z" transform="translate(-14.61 -14.76)"/>
</svg>
